<svg fill="#275d8c" xmlns="http://www.w3.org/2000/svg" width="500" height="500" viewBox="0 0 500 500">
  <metadata><?xpacket begin="﻿" id="W5M0MpCehiHzreSzNTczkc9d"?>
<x:xmpmeta xmlns:x="adobe:ns:meta/" x:xmptk="Adobe XMP Core 5.6-c138 79.159824, 2016/09/14-01:09:01        ">
   <rdf:RDF xmlns:rdf="http://www.w3.org/1999/02/22-rdf-syntax-ns#">
      <rdf:Description rdf:about=""/>
   </rdf:RDF>
</x:xmpmeta>
                                                                                                    
                                                                                                    
                                                                                                    
                                                                                                    
                                                                                                    
                                                                                                    
                                                                                                    
                                                                                                    
                                                                                                    
                                                                                                    
                                                                                                    
                                                                                                    
                                                                                                    
                                                                                                    
                                                                                                    
                                                                                                    
                                                                                                    
                                                                                                    
                                                                                                    
                                                                                                    
                           
<?xpacket end="w"?></metadata>
<defs>
    <style>
      .cls-1 {
        fill-rule: evenodd;
      }
    </style>
  </defs>
  <g id="Mesa_de_trabajo_1" data-name="Mesa de trabajo 1">
    <path id="Forma_4" data-name="Forma 4" class="cls-1" d="M187,264c-4.235.128,35.547-98.811,26-170-2.019-4.9-16-34.169-45.151-13.631-4.444,3.131-5.436,2.98-9.151,10.714C134.761,140.929,112.365,309.926,115,351c2.756,42.958,19.54,68.73,46,62s40.391-44.739,51-65,38.676-70,59-84,29.543-5.256,30,18-3.223,76.846,4,89,26.078,36.591,69,23c35.436-19.4,78.683-56.707,93-77s5.047-40.857-28-32-33.9,11.394-52,22-18.174,15.17-19-9-13.466-65.2-40-86-58.556-18.76-84-3c-28.792,17.834-45.483,45.137-56,55A2.758,2.758,0,0,1,187,264Z"/>
    <path id="Forma_5" data-name="Forma 5" class="cls-1" d="M121,294s-19.691,50.244-56,80-36.213,27.376-39,33-2.825,13.366,4,16,8.089,1.758,12,1,54.854-18.79,79-57S121,294,121,294Z"/>
    <path id="Forma_6" data-name="Forma 6" class="cls-1" d="M391,305s30.668-19.87,54-23c16.436-2.2,24,6,24,6Z"/>
    <path id="Forma_7" data-name="Forma 7" class="cls-1" d="M489,263"/>
  </g>
</svg>
